# xmcd
#
# Track frame offsets: 
#        150
#        3161
#        16695
#        30915
#        41160
#        60566
#        78427
#        116909
#        133610
#        155826
#        164853
#        182939
#        194336
#        206937
#        223156
#        243947
#        258493
#        276958
#
# Disc length: 3866 seconds
#
# Revision: 0
# Processed by: cddbd v1.5.2PL0 Copyright (c) Steve Scherf et al.
# Submitted via: ExactAudioCopy v0.99pb5
#
DISCID=0a0f1812
DTITLE=Cream  - Sirens Sweetly Singing - Disc 2 (lun)  
DYEAR=1900
DGENRE=
TTITLE0=Clapton Interview
TTITLE1=Born Under A Bad Sign
TTITLE2=Outside Woman Blues
TTITLE3=Take It Back
TTITLE4=Sunshine Of Your Love
TTITLE5=We're Going Wrong
TTITLE6=Spoonful
TTITLE7=Tales Of Brave Ulysses
TTITLE8=Sunshine Of Your LOve
TTITLE9=I Feel Free
TTITLE10=Politician
TTITLE11=Swlabr
TTITLE12=Blue Condition
TTITLE13=Steppin' Out
TTITLE14=Sunshine Of Your Love
TTITLE15=Sweet Wine
TTITLE16=Sleepy Time Time
TTITLE17=Cat's Squirrel
EXTD=
EXTT0=
EXTT1=
EXTT2=
EXTT3=
EXTT4=
EXTT5=
EXTT6=
EXTT7=
EXTT8=
EXTT9=
EXTT10=
EXTT11=
EXTT12=
EXTT13=
EXTT14=
EXTT15=
EXTT16=
EXTT17=
PLAYORDER=
